<?xml version="1.0" encoding="UTF-8"?>
<svg width="424px" height="319px" viewBox="0 0 424 319" version="1.1" xmlns="http://www.w3.org/2000/svg" xmlns:xlink="http://www.w3.org/1999/xlink">
    <!-- Generator: Sketch 49 (51002) - http://www.bohemiancoding.com/sketch -->
    <title>Artboard 2 Copy 3</title>
    <desc>Created with Sketch.</desc>
    <defs>
        <radialGradient cx="50%" cy="50%" fx="50%" fy="50%" r="77.1619063%" gradientTransform="translate(0.500000,0.500000),scale(1.000000,0.993532),rotate(92.531757),translate(-0.500000,-0.500000)" id="radialGradient-1">
            <stop stop-color="#FFFFFF" offset="0%"></stop>
            <stop stop-color="#FFFFFF" stop-opacity="0" offset="100%"></stop>
        </radialGradient>
    </defs>
    <g id="Artboard-2-Copy-3" stroke="none" stroke-width="1" fill="none" fill-rule="evenodd">
        <g id="Group-22-Copy-3" transform="translate(35.000000, 20.000000)">
            <g id="Group-26">
                <g id="Group-22">
                    <g id="Group-19-Copy" transform="translate(65.366197, 215.842951) scale(-1, 1) translate(-65.366197, -215.842951) translate(0.366197, 95.342951)">
                        <path d="M22.0657408,32.9848799 L22.6243207,22.7773015 C22.669053,21.9642427 22.0445217,21.2690517 21.2295914,21.2249944 L20.4760247,21.1837979 C19.6610944,21.1397405 18.9643033,21.7628376 18.9201445,22.5758964 L18.3615646,32.7829026 C18.3168323,33.5959614 18.9413637,34.2905803 19.7562939,34.3352098 L20.5098606,34.3764063 C21.3247909,34.4210359 22.0210085,33.7979387 22.0657408,32.9848799" id="Fill-1" fill="#261D7B"></path>
                        <path d="M22.0657408,32.9848799 L22.6243207,22.7773015 C22.669053,21.9642427 22.0445217,21.2690517 21.2295914,21.2249944 L20.4760247,21.1837979 C19.6610944,21.1397405 18.9643033,21.7628376 18.9201445,22.5758964 L18.3615646,32.7829026 C18.3168323,33.5959614 18.9413637,34.2905803 19.7562939,34.3352098 L20.5098606,34.3764063 C21.3247909,34.4210359 22.0210085,33.7979387 22.0657408,32.9848799 Z" id="Stroke-3"></path>
                        <path d="M36.7797335,35.6686033 L39.1281778,25.7173588 C39.3157092,24.9254704 38.8230808,24.1318655 38.0287962,23.9453369 L37.2941546,23.7725404 C36.4998701,23.5860118 35.7044385,24.0769368 35.5174806,24.8693974 L33.1684628,34.8200698 C32.9815048,35.6119582 33.4735598,36.4061352 34.2678444,36.5926638 L35.0030594,36.7654603 C35.797344,36.9519889 36.5927756,36.4610639 36.7797335,35.6686033" id="Fill-5" fill="#261D7B"></path>
                        <path d="M36.7797335,35.6686033 L39.1281778,25.7173588 C39.3157092,24.9254704 38.8230808,24.1318655 38.0287962,23.9453369 L37.2941546,23.7725404 C36.4998701,23.5860118 35.7044385,24.0769368 35.5174806,24.8693974 L33.1684628,34.8200698 C32.9815048,35.6119582 33.4735598,36.4061352 34.2678444,36.5926638 L35.0030594,36.7654603 C35.797344,36.9519889 36.5927756,36.4610639 36.7797335,35.6686033 Z" id="Stroke-7" stroke="#261D7B" stroke-width="0.5"></path>
                        <path d="M53.5506078,42.6665735 L57.1578641,32.1889291 C57.445183,31.3541277 57.0001542,30.4460881 56.1640048,30.1594291 L55.3903659,29.8939405 C54.5542165,29.6072815 53.6429398,30.0512883 53.355621,30.8855175 L49.7483647,41.3631619 C49.4610459,42.1979633 49.9060746,43.1065751 50.742224,43.3932341 L51.515863,43.6581505 C52.3525858,43.9448095 53.263289,43.5008027 53.5506078,42.6665735" id="Fill-9" fill="#261D7B"></path>
                        <path d="M53.5506078,42.6665735 L57.1578641,32.1889291 C57.445183,31.3541277 57.0001542,30.4460881 56.1640048,30.1594291 L55.3903659,29.8939405 C54.5542165,29.6072815 53.6429398,30.0512883 53.355621,30.8855175 L49.7483647,41.3631619 C49.4610459,42.1979633 49.9060746,43.1065751 50.742224,43.3932341 L51.515863,43.6581505 C52.3525858,43.9448095 53.263289,43.5008027 53.5506078,42.6665735 Z" id="Stroke-11" stroke="#261D7B" stroke-width="0.5"></path>
                        <path d="M21.5994929,24.408397 C21.596052,24.3872266 21.5920375,24.3660562 21.5885966,24.3448858 C21.1986229,22.0796502 22.9242563,20.0072371 25.2285418,20.0387067 L30.7317583,20.1148058 L31.671136,20.1279658 C33.1226409,20.1479918 34.3969371,21.0354332 34.9830446,22.3605875 C35.1063451,22.639236 35.2606141,22.9024359 35.4447046,23.1421767 C36.1615679,24.0748198 36.308955,25.3261636 35.9860798,26.4567788 L33.8440921,33.9579757 C33.3457287,35.7036776 31.6355796,36.8171276 29.8330984,36.5688042 L24.5804974,35.8450045 C22.513637,35.560062 21.1154668,33.6072332 21.4951176,31.560568 C22.0353458,28.6470596 21.901149,26.1987285 21.5994929,24.408397" id="Fill-13" fill="#E8EAFF"></path>
                        <path d="M48.3190539,21.3569948 C48.0300146,22.919029 48.7279528,24.7007778 50.1656939,25.4423149 C51.8850189,26.3280397 53.1306406,27.9100999 53.3233335,29.8320313 C53.3760946,30.3584311 53.4070631,30.9191613 53.4047692,31.5056393 C53.3950198,33.8086384 52.8565121,36.8554632 50.7569628,39.8719628 C49.1982151,42.1120228 46.1724784,42.7889042 43.766685,41.4952196 L38.1086261,38.4415286 C36.8154046,37.7440489 36.1816974,36.2432374 36.5848614,34.8322571 L38.8472821,26.908796 C39.1971114,25.6837722 40.2076019,24.7602839 41.4612525,24.5193987 L41.4830452,24.5159657 C43.2253098,24.1766667 44.0958687,22.935622 44.2552991,21.5824313 L46.5504087,23.6079261 L46.0566332,21.0817793 L48.3190539,21.3569948 Z" id="Fill-15" fill="#E8EAFF"></path>
                        <path d="M19.5057932,24.0513607 C19.8928994,25.4154227 20.2215095,27.1948828 20.2358468,29.3239411 C20.2564925,32.3925085 17.6585797,34.8402675 14.5835228,34.7573023 L7.33345376,34.5599024 C3.55300328,34.2349078 0.698166738,30.9363265 0.993514432,27.0981855 C1.25617316,23.6926078 4.08577611,21.0377219 7.49345765,20.7104386 L13.6911713,20.1136614 C16.3017008,19.8624772 18.7636962,21.4714296 19.4874415,23.986705 C19.4937499,24.0084476 19.4994848,24.0296181 19.5057932,24.0513607" id="Fill-17" fill="#E8EAFF"></path>
                        <path d="M57.2766341,22.900605 L80.7346963,25.7500299 L94.4026994,57.8266584 C94.4697978,57.7705854 94.5386167,57.7173732 94.6045681,57.6601558 L97.2890779,52.7755092 C99.3639671,51.7913704 101.094188,55.1094056 102.132207,57.1549265 L103.0561,58.9750109 C106.207431,64.6967477 108.168196,67.9249516 108.664265,72.4479845 L111.21974,94.4778154 L109.275606,109.76458 L107.185806,126.652858 C106.49303,132.248144 102.310562,136.784337 96.7798182,137.938984 L77.4537562,141.973952 C74.3718174,142.617648 71.3328903,142.132444 68.7481679,140.815301 C68.5382703,140.711165 68.3318136,140.601308 68.1282245,140.486301 C63.9021717,138.101481 61.4682773,133.459436 61.5846959,128.616558 L61.8364583,118.1618 C61.887499,116.061351 61.4430438,113.956324 60.4004377,112.131662 C60.2903275,111.939412 60.1750559,111.750022 60.0546228,111.563494 C55.1300585,103.952439 51.3754151,95.6484828 49.6365914,86.7563316 L48.6255273,81.5878868 C48.372618,80.2947743 42.9198687,60.8883597 43.0970773,59.5826594 L43.7703553,50.2001554 L51.0622892,43.9354258 C52.4650474,40.5819159 50.3282211,46.0284372 53.8620706,39.5319772 C53.8620706,39.5319772 57.5478951,31.2766554 56.0688627,24.6526008 C57.7887612,24.2228983 57.3207928,24.313874 57.2766341,22.900605 Z" id="Fill-19" fill="#E8EAFF"></path>
                        <path d="M59.8504312,31.5917553 L78.971831,31.3628129 L78.971831,55.1985507 L50.1408451,55.1985507 C53.7313548,51.0085728 56.0549288,46.9493754 57.1115671,43.0209585 C58.1682054,39.0925416 59.0811601,35.2828072 59.8504312,31.5917553 Z" id="Rectangle-12-Copy" fill="#C1C5E9"></path>
                        <path d="M47.7404592,55.2996533 L51.0821893,45.5938713 C51.4429149,44.5462212 50.884335,43.4053069 49.8342736,43.0454097 C48.7842122,42.6855125 47.6406718,43.2433818 47.2799462,44.2910318 L43.9382161,53.9962417 C43.5774904,55.0438917 44.1360703,56.184806 45.1861318,56.5447032 C46.2361932,56.9046005 47.3797336,56.3473033 47.7404592,55.2996533" id="Fill-21" fill="#D7DAF5"></path>
                        <path d="M44.1606157,54.720213 L25.8387359,54.720213 C24.1968321,54.720213 22.8651868,53.3916258 22.8651868,51.7529204 L22.8651868,45.7239263 C22.8651868,44.0857931 24.1968321,42.7572058 25.8387359,42.7572058 L44.1606157,42.7572058 C45.803093,42.7572058 47.1341649,44.0857931 47.1341649,45.7239263 L47.1341649,51.7529204 C47.1341649,53.3916258 45.803093,54.720213 44.1606157,54.720213" id="Fill-25" fill="#E8EAFF"></path>
                        <path d="M38.0401513,15.8302548 L39.8500878,6.60509866 C40.0066508,5.8063442 39.4847743,5.03219322 38.6841813,4.87541763 L38.1703337,4.77528724 C37.3697407,4.61851165 36.5932343,5.13976187 36.4366714,5.93851632 L34.6267348,15.1631003 C34.4701719,15.9618548 34.9920484,16.736578 35.7932149,16.8927814 L36.306489,16.9934839 C37.107082,17.1502595 37.8835883,16.6290093 38.0401513,15.8302548" id="Fill-27" fill="#261D7B"></path>
                        <path d="M38.0401513,15.8302548 L39.8500878,6.60509866 C40.0066508,5.8063442 39.4847743,5.03219322 38.6841813,4.87541763 L38.1703337,4.77528724 C37.3697407,4.61851165 36.5932343,5.13976187 36.4366714,5.93851632 L34.6267348,15.1631003 C34.4701719,15.9618548 34.9920484,16.736578 35.7932149,16.8927814 L36.306489,16.9934839 C37.107082,17.1502595 37.8835883,16.6290093 38.0401513,15.8302548 Z" id="Stroke-29"></path>
                        <path d="M24.0033937,53.5088069 L23.5423072,43.8207622 C23.5073243,43.0900965 22.8856604,42.5259332 22.1527393,42.5602636 L21.683624,42.5825784 C20.9507029,42.617481 20.3852411,43.2382894 20.420224,43.9683831 L20.8813105,53.6564277 C20.9162935,54.3870935 21.5379574,54.9512568 22.2708784,54.9169264 L22.7399938,54.8946116 C23.4729149,54.859709 24.0383767,54.2389005 24.0033937,53.5088069" id="Fill-31" fill="#261D7B"></path>
                        <path d="M24.0033937,53.5088069 L23.5423072,43.8207622 C23.5073243,43.0900965 22.8856604,42.5259332 22.1527393,42.5602636 L21.683624,42.5825784 C20.9507029,42.617481 20.3852411,43.2382894 20.420224,43.9683831 L20.8813105,53.6564277 C20.9162935,54.3870935 21.5379574,54.9512568 22.2708784,54.9169264 L22.7399938,54.8946116 C23.4729149,54.859709 24.0383767,54.2389005 24.0033937,53.5088069 Z" id="Stroke-33" stroke="#261D7B" stroke-width="0.5"></path>
                        <path d="M5.83050677,45.8263454 L15.3194833,42.6547867 C16.5823098,42.2325226 17.9627018,42.2147852 19.2037356,42.6954111 C19.7646095,42.9128371 20.2738692,43.2172334 20.5393954,43.6423585 C21.6737599,45.4544325 22.6567229,48.618553 21.2132469,53.6342274 C20.9167523,54.8678339 19.8838956,55.7804509 18.6227896,55.9429482 C18.3486611,55.978423 18.075106,56.024769 17.8038449,56.0831307 L9.25883398,57.9146587 C6.21646599,58.5869628 3.1368211,56.9488295 1.99958911,54.0547751 C0.709235108,50.773359 2.3626087,47.073684 5.67107636,45.8372167" id="Fill-35" fill="#E8EAFF"></path>
                        <path d="M74.5903173,147.65146 L99.4000971,142.821742 C100.783357,142.552248 101.686031,141.215078 101.415917,139.834995 L101.243296,138.950415 C100.973182,137.570332 99.6329343,136.670303 98.2496748,136.939224 L73.439895,141.769515 C72.0566355,142.038436 71.1539612,143.375606 71.4240753,144.755117 L71.5972695,145.64027 C71.8668101,147.020352 73.2070578,147.920954 74.5903173,147.65146" id="Fill-37" fill="#342D71"></path>
                        <path d="M74.9958325,38.5512716 L82.9306494,29.0474668 C83.6974064,28.129128 83.5723855,26.7644938 82.6525064,25.9994976 L82.0623846,25.5097169 C81.141932,24.7447207 79.7747303,24.8694546 79.0079733,25.7872212 L71.0731564,35.2915981 C70.3069729,36.2099369 70.4314203,37.5739989 71.3518728,38.3389951 L71.9414213,38.8287758 C72.8618738,39.593772 74.2290755,39.4696103 74.9958325,38.5512716" id="Fill-41" fill="#342D71"></path>
                        <path d="M85.099075,238.195886 L110.796618,233.08079 C124.294295,230.393541 132.865686,213.403678 129.066884,196.865424 L121.269705,162.917491 C118.087979,149.063596 107.219184,140.35948 95.9122415,142.609573 L77.3282764,146.309147 C66.7089498,148.423396 58.8119833,159.584261 58.2006422,172.896949 C58.1071632,174.935328 58.0234336,176.97443 57.8490924,179.004138 L53.6844032,227.581286 C54.0187483,244.878242 71.5348737,240.895419 85.099075,238.195886" id="Fill-43" fill="#ECEFFC"></path>
                        <path d="M38.807023,8.23836842 C38.8121844,8.21777016 38.8167724,8.19659974 38.8213603,8.17600149 C39.3122683,6.05495367 41.6291706,4.92548283 43.5807593,5.8998946 L55.7714504,11.9883947 L57.2441745,23.2190196 L49.5513707,22.2840878 L50.0147511,24.6523147 L46.6179659,21.6558411 L37.6892897,21.5345403 L36.0468124,20.4325338 C34.4462,19.3579917 34.1124284,17.1734326 35.2685856,15.6325688 C37.3618265,12.84265 38.3470835,10.1929137 38.807023,8.23836842" id="Fill-45" fill="#E8EAFF"></path>
                        <path d="M18.0893859,4.88016667 C19.4003856,1.49060981 23.1452796,-0.299721623 26.6928929,0.522491951 L33.3780736,2.07193827 C35.0710181,2.46387724 36.3516227,3.8754297 36.5242434,5.60167768 C36.5735636,6.09603574 36.6056791,6.63902856 36.6085465,7.2249344 C36.6177224,9.12397883 36.3097579,11.7473951 35.0819144,14.7455852 C34.2423241,16.7945391 31.9265687,17.8175857 29.8476651,17.0457234 L22.3028219,14.2420724 C18.5567808,12.850546 16.6252642,8.66566772 18.0893859,4.88016667" id="Fill-47" fill="#E8EAFF"></path>
                        <path d="M97.67584,46.8628952 L88.9283869,32.3897621 C88.707593,32.0241431 87.0358677,29.3269164 85.6440058,27.1503677 C84.9747422,26.1044343 83.3970694,26.2514829 82.9457322,27.4072737 C82.716336,27.9943239 82.4267232,28.6334419 82.0602626,29.3114677 C79.8299574,33.4448504 76.1166054,36.5019743 72.6727939,38.6247387 L72.6418254,38.6436204 C71.0572707,39.6191765 70.5439965,41.6801461 71.4879622,43.2822324 C72.2105604,44.5101171 72.883265,45.6527479 72.9010432,45.6830731 L82.9835826,62.8574382 C88.8297465,62.2051602 93.2421837,60.2797958 96.2679204,58.3607253 C99.3877097,56.3815765 100.435477,52.32086 98.7700602,49.0274283 L97.67584,46.8628952 Z" id="Fill-49" fill="#E8EAFF"></path>
                        <path d="M67.7780363,61.3605174 L70.8875027,52.3293281 C71.423143,50.7747322 70.5938755,49.0816703 69.0357013,48.5472601 C67.4775272,48.0134221 65.7805683,48.8407852 65.244928,50.3953811 L62.1354616,59.4265704 C61.6003948,60.9811663 62.4296623,62.6742282 63.9878365,63.2080662 C65.5460106,63.7424765 67.2429695,62.9151133 67.7780363,61.3605174" id="Fill-339" fill="#342D71"></path>
                        <path d="M90.4604524,70.3437586 L94.2019055,61.4435971 C94.8281573,59.9536568 94.1250578,58.2394245 92.6316881,57.6146108 C91.1383184,56.9897972 89.4201403,57.6912821 88.7938885,59.1806502 L85.0524354,68.0813839 C84.4261836,69.570752 85.1292832,71.2855565 86.6226529,71.9097979 C88.1160226,72.5346116 89.8342006,71.8336988 90.4604524,70.3437586" id="Fill-341" fill="#342D71"></path>
                        <path d="M99.1833602,56.8770217 C104.889019,59.8546135 108.790476,65.4109921 109.646697,71.7781408 L112.920756,96.1247029 C112.251492,102.373412 106.423106,106.826639 100.110695,105.713762 C95.5233427,104.904136 92.0239027,101.146099 91.2095459,96.5692819 L88.5657539,81.711648 L88.4206608,80.8963005 C87.7026505,76.8664813 88.1620165,72.7159334 89.7437038,68.9384428 L91.3185091,65.1786896 L93.9009376,58.8132574 C94.7428219,56.7379835 97.195068,55.8396708 99.1833602,56.8770217" id="Fill-343" fill="#9FB5E3"></path>
                        <path d="M90.2350132,97.3784499 C91.5855837,103.62487 97.7563433,107.595755 104.017141,106.248286 C110.277365,104.900245 114.257964,98.7442284 112.90682,92.4978084 C111.556249,86.2513884 105.386063,82.2805031 99.1252656,83.6279721 C92.8644679,84.9754411 88.8844427,91.1320298 90.2350132,97.3784499 Z" id="Stroke-345" stroke="#342D71" stroke-width="1.33314998"></path>
                        <path d="M60.9911905,14.5314206 C61.2211602,13.3590367 60.4549767,12.2215555 59.2793208,11.992686 L58.5257541,11.8450652 C57.3506717,11.6156235 56.2111457,12.3806197 55.981176,13.5530036 L54.1546082,22.8622693 C53.9246385,24.0352254 54.690822,25.1715623 55.8664779,25.4015761 L56.6200446,25.5480526 C57.795127,25.7780664 58.9346529,25.0136424 59.1646227,23.8406863 L60.9911905,14.5314206 Z" id="Fill-347" fill="#261D7B"></path>
                        <path d="M59.1646227,23.8406863 L60.9911905,14.5314206 C61.2211602,13.3590367 60.4549767,12.2215555 59.2793208,11.992686 L58.5257541,11.8450652 C57.3506717,11.6156235 56.2111457,12.3806197 55.981176,13.5530036 L54.1546082,22.8622693 C53.9246385,24.0352254 54.690822,25.1715623 55.8664779,25.4015761 L56.6200446,25.5480526 C57.795127,25.7780664 58.9346529,25.0136424 59.1646227,23.8406863 Z" id="Stroke-349" stroke="#2E2E54" stroke-width="0.5"></path>
                        <path d="M29.0042323,16.021933 C28.4622837,11.4250897 31.9944127,7.35579052 36.6322317,7.23506187 L48.4604767,6.92494374 C48.6703743,6.919222 49.793269,6.92551592 51.085917,6.93524287 C54.0772443,6.95755764 56.5925744,9.15756543 57.0290008,12.1099816 C57.3776831,14.4633319 57.3902999,17.3985829 56.4199537,20.5609868 C55.4071692,23.8584237 52.0230007,25.8329951 48.6210541,25.216764 C48.6170397,25.2161918 48.6135987,25.2156197 48.6101578,25.2150475 L35.4410916,22.8491093 C32.0230872,22.2345948 29.4096902,19.4635577 29.0042323,16.021933" id="Fill-351" fill="#E8EAFF"></path>
                        <path d="M59.9619468,14.6507188 C59.8472486,11.9929721 62.8248122,10.3393902 65.0591318,11.7904226 C67.9994185,13.6997662 70.8341828,15.5587584 71.041213,15.6955079 L79.2014117,21.111704 L79.2128815,21.1191422 C79.9033642,21.5780255 80.2308274,22.4151156 80.038708,23.2207361 C79.4170441,25.822982 77.338714,30.8872912 70.392595,35.5281919 C68.2121835,36.9849461 65.2724703,36.5615376 63.6070534,34.5383315 C63.5887017,34.5154445 63.5743645,34.4982793 63.5651886,34.487408 L58.474312,28.3439792 L58.4571072,28.323381 C57.4483372,27.1115171 57.2831718,25.4258935 57.982257,24.0137689 C59.6539823,20.6390885 60.0800858,17.389142 59.9619468,14.6507188" id="Fill-353" fill="#E8EAFF"></path>
                        <path d="M72.5862394,68.2752363 L77.5985478,69.9929017 C81.4982844,71.3294994 85.7449827,69.259375 87.0846569,65.368594 L88.8062759,60.3677961 C90.1459501,56.4770151 88.0710609,52.240069 84.1713244,50.9040435 L79.1590159,49.1858059 C75.2598529,47.8492082 71.012581,49.9199048 69.6729068,53.8101136 L67.9512878,58.8109115 C66.6116136,62.7016925 68.6870763,66.9386386 72.5862394,68.2752363" id="Fill-355" fill="#9FB5E3"></path>
                    </g>
                    <path d="M237.085195,243.182623 C205.730569,265.694396 150.691132,265.542068 119.640589,242.858588 C116.858127,240.825569 115.323944,238.214455 115.323944,235.51076 L115.323944,203.231027 L241.929577,203.231027 L241.929577,235.456396 C241.929577,238.192925 240.357935,240.833643 237.513774,242.875275 L237.085195,243.182623 Z" id="Fill-701" fill="#342D71"></path>
                    <ellipse id="Oval-3" fill="#342D71" cx="178.626761" cy="203.808103" rx="63.3028169" ry="29.4308636"></ellipse>
                    <g id="Group-19" transform="translate(225.633803, 99.106489)">
                        <path d="M22.0657408,32.9848799 L22.6243207,22.7773015 C22.669053,21.9642427 22.0445217,21.2690517 21.2295914,21.2249944 L20.4760247,21.1837979 C19.6610944,21.1397405 18.9643033,21.7628376 18.9201445,22.5758964 L18.3615646,32.7829026 C18.3168323,33.5959614 18.9413637,34.2905803 19.7562939,34.3352098 L20.5098606,34.3764063 C21.3247909,34.4210359 22.0210085,33.7979387 22.0657408,32.9848799" id="Fill-1" fill="#261D7B"></path>
                        <path d="M22.0657408,32.9848799 L22.6243207,22.7773015 C22.669053,21.9642427 22.0445217,21.2690517 21.2295914,21.2249944 L20.4760247,21.1837979 C19.6610944,21.1397405 18.9643033,21.7628376 18.9201445,22.5758964 L18.3615646,32.7829026 C18.3168323,33.5959614 18.9413637,34.2905803 19.7562939,34.3352098 L20.5098606,34.3764063 C21.3247909,34.4210359 22.0210085,33.7979387 22.0657408,32.9848799 Z" id="Stroke-3"></path>
                        <path d="M36.7797335,35.6686033 L39.1281778,25.7173588 C39.3157092,24.9254704 38.8230808,24.1318655 38.0287962,23.9453369 L37.2941546,23.7725404 C36.4998701,23.5860118 35.7044385,24.0769368 35.5174806,24.8693974 L33.1684628,34.8200698 C32.9815048,35.6119582 33.4735598,36.4061352 34.2678444,36.5926638 L35.0030594,36.7654603 C35.797344,36.9519889 36.5927756,36.4610639 36.7797335,35.6686033" id="Fill-5" fill="#261D7B"></path>
                        <path d="M36.7797335,35.6686033 L39.1281778,25.7173588 C39.3157092,24.9254704 38.8230808,24.1318655 38.0287962,23.9453369 L37.2941546,23.7725404 C36.4998701,23.5860118 35.7044385,24.0769368 35.5174806,24.8693974 L33.1684628,34.8200698 C32.9815048,35.6119582 33.4735598,36.4061352 34.2678444,36.5926638 L35.0030594,36.7654603 C35.797344,36.9519889 36.5927756,36.4610639 36.7797335,35.6686033 Z" id="Stroke-7" stroke="#261D7B" stroke-width="0.5"></path>
                        <path d="M53.5506078,42.6665735 L57.1578641,32.1889291 C57.445183,31.3541277 57.0001542,30.4460881 56.1640048,30.1594291 L55.3903659,29.8939405 C54.5542165,29.6072815 53.6429398,30.0512883 53.355621,30.8855175 L49.7483647,41.3631619 C49.4610459,42.1979633 49.9060746,43.1065751 50.742224,43.3932341 L51.515863,43.6581505 C52.3525858,43.9448095 53.263289,43.5008027 53.5506078,42.6665735" id="Fill-9" fill="#261D7B"></path>
                        <path d="M53.5506078,42.6665735 L57.1578641,32.1889291 C57.445183,31.3541277 57.0001542,30.4460881 56.1640048,30.1594291 L55.3903659,29.8939405 C54.5542165,29.6072815 53.6429398,30.0512883 53.355621,30.8855175 L49.7483647,41.3631619 C49.4610459,42.1979633 49.9060746,43.1065751 50.742224,43.3932341 L51.515863,43.6581505 C52.3525858,43.9448095 53.263289,43.5008027 53.5506078,42.6665735 Z" id="Stroke-11" stroke="#261D7B" stroke-width="0.5"></path>
                        <path d="M21.5994929,24.408397 C21.596052,24.3872266 21.5920375,24.3660562 21.5885966,24.3448858 C21.1986229,22.0796502 22.9242563,20.0072371 25.2285418,20.0387067 L30.7317583,20.1148058 L31.671136,20.1279658 C33.1226409,20.1479918 34.3969371,21.0354332 34.9830446,22.3605875 C35.1063451,22.639236 35.2606141,22.9024359 35.4447046,23.1421767 C36.1615679,24.0748198 36.308955,25.3261636 35.9860798,26.4567788 L33.8440921,33.9579757 C33.3457287,35.7036776 31.6355796,36.8171276 29.8330984,36.5688042 L24.5804974,35.8450045 C22.513637,35.560062 21.1154668,33.6072332 21.4951176,31.560568 C22.0353458,28.6470596 21.901149,26.1987285 21.5994929,24.408397" id="Fill-13" fill="#E8EAFF"></path>
                        <path d="M48.3190539,21.3569948 C48.0300146,22.919029 48.7279528,24.7007778 50.1656939,25.4423149 C51.8850189,26.3280397 53.1306406,27.9100999 53.3233335,29.8320313 C53.3760946,30.3584311 53.4070631,30.9191613 53.4047692,31.5056393 C53.3950198,33.8086384 52.8565121,36.8554632 50.7569628,39.8719628 C49.1982151,42.1120228 46.1724784,42.7889042 43.766685,41.4952196 L38.1086261,38.4415286 C36.8154046,37.7440489 36.1816974,36.2432374 36.5848614,34.8322571 L38.8472821,26.908796 C39.1971114,25.6837722 40.2076019,24.7602839 41.4612525,24.5193987 L41.4830452,24.5159657 C43.2253098,24.1766667 44.0958687,22.935622 44.2552991,21.5824313 L46.5504087,23.6079261 L46.0566332,21.0817793 L48.3190539,21.3569948 Z" id="Fill-15" fill="#E8EAFF"></path>
                        <path d="M19.5057932,24.0513607 C19.8928994,25.4154227 20.2215095,27.1948828 20.2358468,29.3239411 C20.2564925,32.3925085 17.6585797,34.8402675 14.5835228,34.7573023 L7.33345376,34.5599024 C3.55300328,34.2349078 0.698166738,30.9363265 0.993514432,27.0981855 C1.25617316,23.6926078 4.08577611,21.0377219 7.49345765,20.7104386 L13.6911713,20.1136614 C16.3017008,19.8624772 18.7636962,21.4714296 19.4874415,23.986705 C19.4937499,24.0084476 19.4994848,24.0296181 19.5057932,24.0513607" id="Fill-17" fill="#E8EAFF"></path>
                        <path d="M57.2766341,22.900605 L80.7346963,25.7500299 L94.4026994,57.8266584 C94.4697978,57.7705854 94.5386167,57.7173732 94.6045681,57.6601558 L97.2890779,52.7755092 C99.3639671,51.7913704 101.094188,55.1094056 102.132207,57.1549265 L103.0561,58.9750109 C106.207431,64.6967477 108.168196,67.9249516 108.664265,72.4479845 L111.21974,94.4778154 L109.275606,109.76458 L107.185806,126.652858 C106.49303,132.248144 102.310562,136.784337 96.7798182,137.938984 L77.4537562,141.973952 C74.3718174,142.617648 71.3328903,142.132444 68.7481679,140.815301 C68.5382703,140.711165 68.3318136,140.601308 68.1282245,140.486301 C63.9021717,138.101481 61.4682773,133.459436 61.5846959,128.616558 L61.8364583,118.1618 C61.887499,116.061351 61.4430438,113.956324 60.4004377,112.131662 C60.2903275,111.939412 60.1750559,111.750022 60.0546228,111.563494 C55.1300585,103.952439 51.3754151,95.6484828 49.6365914,86.7563316 L48.6255273,81.5878868 C48.372618,80.2947743 42.9198687,60.8883597 43.0970773,59.5826594 L43.7703553,50.2001554 L51.0622892,43.9354258 C52.4650474,40.5819159 50.3282211,46.0284372 53.8620706,39.5319772 C53.8620706,39.5319772 57.5478951,31.2766554 56.0688627,24.6526008 C57.7887612,24.2228983 57.3207928,24.313874 57.2766341,22.900605 Z" id="Fill-19" fill="#E8EAFF"></path>
                        <path d="M61.1039523,30.3372428 L80.2253521,30.1083004 L80.2253521,53.9440381 L51.3943662,53.9440381 C54.9848759,49.7540603 57.3084499,45.6948629 58.3650882,41.766446 C59.4217266,37.838029 60.3346813,34.0282946 61.1039523,30.3372428 Z" id="Rectangle-12" fill="#C1C5E9"></path>
                        <path d="M47.7404592,55.2996533 L51.0821893,45.5938713 C51.4429149,44.5462212 50.884335,43.4053069 49.8342736,43.0454097 C48.7842122,42.6855125 47.6406718,43.2433818 47.2799462,44.2910318 L43.9382161,53.9962417 C43.5774904,55.0438917 44.1360703,56.184806 45.1861318,56.5447032 C46.2361932,56.9046005 47.3797336,56.3473033 47.7404592,55.2996533" id="Fill-21" fill="#D7DAF5"></path>
                        <path d="M44.1606157,54.720213 L25.8387359,54.720213 C24.1968321,54.720213 22.8651868,53.3916258 22.8651868,51.7529204 L22.8651868,45.7239263 C22.8651868,44.0857931 24.1968321,42.7572058 25.8387359,42.7572058 L44.1606157,42.7572058 C45.803093,42.7572058 47.1341649,44.0857931 47.1341649,45.7239263 L47.1341649,51.7529204 C47.1341649,53.3916258 45.803093,54.720213 44.1606157,54.720213" id="Fill-25" fill="#E8EAFF"></path>
                        <path d="M38.0401513,15.8302548 L39.8500878,6.60509866 C40.0066508,5.8063442 39.4847743,5.03219322 38.6841813,4.87541763 L38.1703337,4.77528724 C37.3697407,4.61851165 36.5932343,5.13976187 36.4366714,5.93851632 L34.6267348,15.1631003 C34.4701719,15.9618548 34.9920484,16.736578 35.7932149,16.8927814 L36.306489,16.9934839 C37.107082,17.1502595 37.8835883,16.6290093 38.0401513,15.8302548" id="Fill-27" fill="#261D7B"></path>
                        <path d="M38.0401513,15.8302548 L39.8500878,6.60509866 C40.0066508,5.8063442 39.4847743,5.03219322 38.6841813,4.87541763 L38.1703337,4.77528724 C37.3697407,4.61851165 36.5932343,5.13976187 36.4366714,5.93851632 L34.6267348,15.1631003 C34.4701719,15.9618548 34.9920484,16.736578 35.7932149,16.8927814 L36.306489,16.9934839 C37.107082,17.1502595 37.8835883,16.6290093 38.0401513,15.8302548 Z" id="Stroke-29"></path>
                        <path d="M24.0033937,53.5088069 L23.5423072,43.8207622 C23.5073243,43.0900965 22.8856604,42.5259332 22.1527393,42.5602636 L21.683624,42.5825784 C20.9507029,42.617481 20.3852411,43.2382894 20.420224,43.9683831 L20.8813105,53.6564277 C20.9162935,54.3870935 21.5379574,54.9512568 22.2708784,54.9169264 L22.7399938,54.8946116 C23.4729149,54.859709 24.0383767,54.2389005 24.0033937,53.5088069" id="Fill-31" fill="#261D7B"></path>
                        <path d="M24.0033937,53.5088069 L23.5423072,43.8207622 C23.5073243,43.0900965 22.8856604,42.5259332 22.1527393,42.5602636 L21.683624,42.5825784 C20.9507029,42.617481 20.3852411,43.2382894 20.420224,43.9683831 L20.8813105,53.6564277 C20.9162935,54.3870935 21.5379574,54.9512568 22.2708784,54.9169264 L22.7399938,54.8946116 C23.4729149,54.859709 24.0383767,54.2389005 24.0033937,53.5088069 Z" id="Stroke-33" stroke="#261D7B" stroke-width="0.5"></path>
                        <path d="M5.83050677,45.8263454 L15.3194833,42.6547867 C16.5823098,42.2325226 17.9627018,42.2147852 19.2037356,42.6954111 C19.7646095,42.9128371 20.2738692,43.2172334 20.5393954,43.6423585 C21.6737599,45.4544325 22.6567229,48.618553 21.2132469,53.6342274 C20.9167523,54.8678339 19.8838956,55.7804509 18.6227896,55.9429482 C18.3486611,55.978423 18.075106,56.024769 17.8038449,56.0831307 L9.25883398,57.9146587 C6.21646599,58.5869628 3.1368211,56.9488295 1.99958911,54.0547751 C0.709235108,50.773359 2.3626087,47.073684 5.67107636,45.8372167" id="Fill-35" fill="#E8EAFF"></path>
                        <path d="M74.5903173,147.65146 L99.4000971,142.821742 C100.783357,142.552248 101.686031,141.215078 101.415917,139.834995 L101.243296,138.950415 C100.973182,137.570332 99.6329343,136.670303 98.2496748,136.939224 L73.439895,141.769515 C72.0566355,142.038436 71.1539612,143.375606 71.4240753,144.755117 L71.5972695,145.64027 C71.8668101,147.020352 73.2070578,147.920954 74.5903173,147.65146" id="Fill-37" fill="#342D71"></path>
                        <path d="M74.9958325,38.5512716 L82.9306494,29.0474668 C83.6974064,28.129128 83.5723855,26.7644938 82.6525064,25.9994976 L82.0623846,25.5097169 C81.141932,24.7447207 79.7747303,24.8694546 79.0079733,25.7872212 L71.0731564,35.2915981 C70.3069729,36.2099369 70.4314203,37.5739989 71.3518728,38.3389951 L71.9414213,38.8287758 C72.8618738,39.593772 74.2290755,39.4696103 74.9958325,38.5512716" id="Fill-41" fill="#342D71"></path>
                        <path d="M110.796618,233.08079 C124.294295,230.393541 132.865686,213.403678 129.066884,196.865424 L121.269705,162.917491 C118.087979,149.063596 107.219184,140.35948 95.9122415,142.609573 L77.3282764,146.309147 C66.7089498,148.423396 58.8119833,159.584261 58.2006422,172.896949 C58.1071632,174.935328 58.0234336,176.97443 57.8490924,179.004138 L53.6844032,227.581286 C54.0187483,244.878242 71.5348737,240.895419 85.099075,238.195886 L110.796618,233.08079 Z" id="Fill-43" fill="#ECEFFC"></path>
                        <path d="M38.807023,8.23836842 C38.8121844,8.21777016 38.8167724,8.19659974 38.8213603,8.17600149 C39.3122683,6.05495367 41.6291706,4.92548283 43.5807593,5.8998946 L55.7714504,11.9883947 L57.2441745,23.2190196 L49.5513707,22.2840878 L50.0147511,24.6523147 L46.6179659,21.6558411 L37.6892897,21.5345403 L36.0468124,20.4325338 C34.4462,19.3579917 34.1124284,17.1734326 35.2685856,15.6325688 C37.3618265,12.84265 38.3470835,10.1929137 38.807023,8.23836842" id="Fill-45" fill="#E8EAFF"></path>
                        <path d="M18.0893859,4.88016667 C19.4003856,1.49060981 23.1452796,-0.299721623 26.6928929,0.522491951 L33.3780736,2.07193827 C35.0710181,2.46387724 36.3516227,3.8754297 36.5242434,5.60167768 C36.5735636,6.09603574 36.6056791,6.63902856 36.6085465,7.2249344 C36.6177224,9.12397883 36.3097579,11.7473951 35.0819144,14.7455852 C34.2423241,16.7945391 31.9265687,17.8175857 29.8476651,17.0457234 L22.3028219,14.2420724 C18.5567808,12.850546 16.6252642,8.66566772 18.0893859,4.88016667" id="Fill-47" fill="#E8EAFF"></path>
                        <path d="M97.67584,46.8628952 L88.9283869,32.3897621 C88.707593,32.0241431 87.0358677,29.3269164 85.6440058,27.1503677 C84.9747422,26.1044343 83.3970694,26.2514829 82.9457322,27.4072737 C82.716336,27.9943239 82.4267232,28.6334419 82.0602626,29.3114677 C79.8299574,33.4448504 76.1166054,36.5019743 72.6727939,38.6247387 L72.6418254,38.6436204 C71.0572707,39.6191765 70.5439965,41.6801461 71.4879622,43.2822324 C72.2105604,44.5101171 72.883265,45.6527479 72.9010432,45.6830731 L82.9835826,62.8574382 C88.8297465,62.2051602 93.2421837,60.2797958 96.2679204,58.3607253 C99.3877097,56.3815765 100.435477,52.32086 98.7700602,49.0274283 L97.67584,46.8628952 Z" id="Fill-49" fill="#E8EAFF"></path>
                        <path d="M67.7780363,61.3605174 L70.8875027,52.3293281 C71.423143,50.7747322 70.5938755,49.0816703 69.0357013,48.5472601 C67.4775272,48.0134221 65.7805683,48.8407852 65.244928,50.3953811 L62.1354616,59.4265704 C61.6003948,60.9811663 62.4296623,62.6742282 63.9878365,63.2080662 C65.5460106,63.7424765 67.2429695,62.9151133 67.7780363,61.3605174" id="Fill-339" fill="#342D71"></path>
                        <path d="M90.4604524,70.3437586 L94.2019055,61.4435971 C94.8281573,59.9536568 94.1250578,58.2394245 92.6316881,57.6146108 C91.1383184,56.9897972 89.4201403,57.6912821 88.7938885,59.1806502 L85.0524354,68.0813839 C84.4261836,69.570752 85.1292832,71.2855565 86.6226529,71.9097979 C88.1160226,72.5346116 89.8342006,71.8336988 90.4604524,70.3437586" id="Fill-341" fill="#342D71"></path>
                        <path d="M109.646697,71.7781408 L112.920756,96.1247029 C112.251492,102.373412 106.423106,106.826639 100.110695,105.713762 C95.5233427,104.904136 92.0239027,101.146099 91.2095459,96.5692819 L88.5657539,81.711648 L88.4206608,80.8963005 C87.7026505,76.8664813 88.1620165,72.7159334 89.7437038,68.9384428 L91.3185091,65.1786896 L93.9009376,58.8132574 C94.7428219,56.7379835 97.195068,55.8396708 99.1833602,56.8770217 C104.889019,59.8546135 108.790476,65.4109921 109.646697,71.7781408 Z" id="Fill-343" fill="#9FB5E3"></path>
                        <path d="M90.2350132,97.3784499 C91.5855837,103.62487 97.7563433,107.595755 104.017141,106.248286 C110.277365,104.900245 114.257964,98.7442284 112.90682,92.4978084 C112.107489,88.8008832 109.619928,85.9010389 106.424528,84.4290944 C104.220897,83.4140036 101.680629,83.0779986 99.1252656,83.6279721 C92.8644679,84.9754411 88.8844427,91.1320298 90.2350132,97.3784499 Z" id="Stroke-345" stroke="#261D7B" stroke-width="1.33314998"></path>
                        <path d="M60.9911905,14.5314206 C61.2211602,13.3590367 60.4549767,12.2215555 59.2793208,11.992686 L58.5257541,11.8450652 C57.3506717,11.6156235 56.2111457,12.3806197 55.981176,13.5530036 L54.1546082,22.8622693 C53.9246385,24.0352254 54.690822,25.1715623 55.8664779,25.4015761 L56.6200446,25.5480526 C57.795127,25.7780664 58.9346529,25.0136424 59.1646227,23.8406863 L60.9911905,14.5314206 Z" id="Fill-347" fill="#261D7B"></path>
                        <path d="M59.1646227,23.8406863 L60.9911905,14.5314206 C61.2211602,13.3590367 60.4549767,12.2215555 59.2793208,11.992686 L58.5257541,11.8450652 C57.3506717,11.6156235 56.2111457,12.3806197 55.981176,13.5530036 L54.1546082,22.8622693 C53.9246385,24.0352254 54.690822,25.1715623 55.8664779,25.4015761 L56.6200446,25.5480526 C57.795127,25.7780664 58.9346529,25.0136424 59.1646227,23.8406863 Z" id="Stroke-349" stroke="#2E2E54" stroke-width="0.5"></path>
                        <path d="M29.0042323,16.021933 C28.4622837,11.4250897 31.9944127,7.35579052 36.6322317,7.23506187 L48.4604767,6.92494374 C48.6703743,6.919222 49.793269,6.92551592 51.085917,6.93524287 C54.0772443,6.95755764 56.5925744,9.15756543 57.0290008,12.1099816 C57.3776831,14.4633319 57.3902999,17.3985829 56.4199537,20.5609868 C55.4071692,23.8584237 52.0230007,25.8329951 48.6210541,25.216764 C48.6170397,25.2161918 48.6135987,25.2156197 48.6101578,25.2150475 L35.4410916,22.8491093 C32.0230872,22.2345948 29.4096902,19.4635577 29.0042323,16.021933" id="Fill-351" fill="#E8EAFF"></path>
                        <path d="M59.9619468,14.6507188 C59.8472486,11.9929721 62.8248122,10.3393902 65.0591318,11.7904226 C67.9994185,13.6997662 70.8341828,15.5587584 71.041213,15.6955079 L79.2014117,21.111704 L79.2128815,21.1191422 C79.9033642,21.5780255 80.2308274,22.4151156 80.038708,23.2207361 C79.4170441,25.822982 77.338714,30.8872912 70.392595,35.5281919 C68.2121835,36.9849461 65.2724703,36.5615376 63.6070534,34.5383315 C63.5887017,34.5154445 63.5743645,34.4982793 63.5651886,34.487408 L58.474312,28.3439792 L58.4571072,28.323381 C57.4483372,27.1115171 57.2831718,25.4258935 57.982257,24.0137689 C59.6539823,20.6390885 60.0800858,17.389142 59.9619468,14.6507188" id="Fill-353" fill="#E8EAFF"></path>
                        <path d="M72.5862394,68.2752363 L77.5985478,69.9929017 C81.4982844,71.3294994 85.7449827,69.259375 87.0846569,65.368594 L88.8062759,60.3677961 C90.1459501,56.4770151 88.0710609,52.240069 84.1713244,50.9040435 L79.1590159,49.1858059 C75.2598529,47.8492082 71.012581,49.9199048 69.6729068,53.8101136 L67.9512878,58.8109115 C66.6116136,62.7016925 68.6870763,66.9386386 72.5862394,68.2752363" id="Fill-355" fill="#9FB5E3"></path>
                    </g>
                    <path d="M178.626491,220.794203 C118.0503,220.794203 68.943662,171.368018 68.943662,110.397101 C68.943662,49.4267277 118.0503,0 178.626491,0 C239.203221,0 288.309859,49.4267277 288.309859,110.397101 C288.309859,171.368018 239.203221,220.794203 178.626491,220.794203 Z" id="Fill-703" fill="#5F93FF" opacity="0.85"></path>
                    <path d="M178.626491,220.794203 C118.0503,220.794203 68.943662,171.368018 68.943662,110.397101 C68.943662,49.4267277 118.0503,0 178.626491,0 C239.203221,0 288.309859,49.4267277 288.309859,110.397101 C288.309859,171.368018 239.203221,220.794203 178.626491,220.794203 Z" id="Fill-703" fill="url(#radialGradient-1)" opacity="0.25"></path>
                    <path d="M75.2276077,137.188554 L79.7652251,138.78279 L80.2045459,138.942091 C82.7862412,139.877065 84.3272153,142.517787 83.9214072,145.246736 C83.4796491,148.218926 82.4937668,152.091779 80.3087399,155.468961 C78.7805615,157.830906 75.758936,158.715027 73.1961297,157.572348 L68.5695514,155.439552 C63.9600341,153.313496 61.5117802,148.003257 63.222755,143.202781 C64.9897874,138.245455 70.3012432,135.636594 75.2276077,137.188554 Z" id="Fill-719" fill="#9FB5E3" transform="translate(73.330986, 147.405221) scale(-1, 1) translate(-73.330986, -147.405221) "></path>
                    <path d="M284.565636,140.952092 L289.103253,142.546327 L289.542574,142.705628 C292.124269,143.640603 293.665243,146.281324 293.259435,149.010274 C292.817677,151.982463 291.831795,155.855317 289.646768,159.232499 C288.11859,161.594443 285.096964,162.478564 282.534158,161.335885 L277.90758,159.20309 C273.298062,157.077033 270.849808,151.766794 272.560783,146.966319 C274.327816,142.008993 279.639271,139.400132 284.565636,140.952092 Z" id="Fill-719" fill="#9FB5E3"></path>
                </g>
            </g>
        </g>
    </g>
</svg>